<svg width="220" height="132" viewBox="0 0 220 132" fill="none" xmlns="http://www.w3.org/2000/svg">
<path d="M55.74 131.52C44.94 131.52 35.34 128.94 26.94 123.78C18.66 118.62 12.12 111.18 7.32 101.46C2.52 91.74 0.12 79.92 0.12 66C0.12 52.08 2.52 40.26 7.32 30.54C12.12 20.82 18.66 13.38 26.94 8.22C35.34 3.05999 44.94 0.479992 55.74 0.479992C66.42 0.479992 75.9 3.05999 84.18 8.22C92.58 13.38 99.18 20.82 103.98 30.54C108.78 40.26 111.18 52.08 111.18 66C111.18 79.92 108.78 91.74 103.98 101.46C99.18 111.18 92.58 118.62 84.18 123.78C75.9 128.94 66.42 131.52 55.74 131.52ZM55.74 102.36C59.58 102.36 62.94 101.16 65.82 98.76C68.82 96.36 71.16 92.52 72.84 87.24C74.52 81.84 75.36 74.76 75.36 66C75.36 57.12 74.52 50.04 72.84 44.76C71.16 39.48 68.82 35.64 65.82 33.24C62.94 30.84 59.58 29.64 55.74 29.64C51.9 29.64 48.48 30.84 45.48 33.24C42.6 35.64 40.26 39.48 38.46 44.76C36.78 50.04 35.94 57.12 35.94 66C35.94 74.76 36.78 81.84 38.46 87.24C40.26 92.52 42.6 96.36 45.48 98.76C48.48 101.16 51.9 102.36 55.74 102.36ZM121.392 129V106.68L168.552 62.58C171.912 59.46 174.372 56.7 175.932 54.3C177.612 51.9 178.692 49.74 179.172 47.82C179.772 45.78 180.072 43.92 180.072 42.24C180.072 38.16 178.692 34.98 175.932 32.7C173.292 30.42 169.272 29.28 163.872 29.28C159.312 29.28 155.052 30.3 151.092 32.34C147.132 34.38 143.892 37.44 141.372 41.52L114.912 26.76C119.592 18.84 126.372 12.48 135.252 7.68C144.132 2.87999 154.752 0.479992 167.112 0.479992C176.832 0.479992 185.352 2.03999 192.672 5.16C199.992 8.27999 205.692 12.72 209.772 18.48C213.972 24.24 216.072 31.02 216.072 38.82C216.072 42.9 215.532 46.98 214.452 51.06C213.372 55.02 211.272 59.28 208.152 63.84C205.152 68.28 200.652 73.26 194.652 78.78L157.212 113.34L151.272 100.74H219.492V129H121.392Z" fill="#D6D1D1" fill-opacity="0.3"/>
</svg>
