<svg width="219" height="132" viewBox="0 0 219 132" fill="none" xmlns="http://www.w3.org/2000/svg">
<path d="M55.74 131.52C44.94 131.52 35.34 128.94 26.94 123.78C18.66 118.62 12.12 111.18 7.32 101.46C2.52 91.74 0.12 79.92 0.12 66C0.12 52.08 2.52 40.26 7.32 30.54C12.12 20.82 18.66 13.38 26.94 8.22C35.34 3.05999 44.94 0.479992 55.74 0.479992C66.42 0.479992 75.9 3.05999 84.18 8.22C92.58 13.38 99.18 20.82 103.98 30.54C108.78 40.26 111.18 52.08 111.18 66C111.18 79.92 108.78 91.74 103.98 101.46C99.18 111.18 92.58 118.62 84.18 123.78C75.9 128.94 66.42 131.52 55.74 131.52ZM55.74 102.36C59.58 102.36 62.94 101.16 65.82 98.76C68.82 96.36 71.16 92.52 72.84 87.24C74.52 81.84 75.36 74.76 75.36 66C75.36 57.12 74.52 50.04 72.84 44.76C71.16 39.48 68.82 35.64 65.82 33.24C62.94 30.84 59.58 29.64 55.74 29.64C51.9 29.64 48.48 30.84 45.48 33.24C42.6 35.64 40.26 39.48 38.46 44.76C36.78 50.04 35.94 57.12 35.94 66C35.94 74.76 36.78 81.84 38.46 87.24C40.26 92.52 42.6 96.36 45.48 98.76C48.48 101.16 51.9 102.36 55.74 102.36ZM163.705 131.52C154.945 131.52 146.185 130.44 137.425 128.28C128.785 126.12 121.225 123.06 114.745 119.1L127.705 92.28C132.745 95.64 138.325 98.22 144.445 100.02C150.685 101.82 156.745 102.72 162.625 102.72C168.745 102.72 173.605 101.58 177.205 99.3C180.805 97.02 182.605 93.78 182.605 89.58C182.605 85.86 181.105 82.92 178.105 80.76C175.105 78.48 170.185 77.34 163.345 77.34H148.405V54.84L182.245 18.3L185.665 30.54H121.225V2.99999H212.305V25.32L178.465 61.86L161.005 51.96H170.725C186.445 51.96 198.325 55.5 206.365 62.58C214.525 69.54 218.605 78.54 218.605 89.58C218.605 96.78 216.625 103.56 212.665 109.92C208.825 116.28 202.885 121.5 194.845 125.58C186.805 129.54 176.425 131.52 163.705 131.52Z" fill="#D6D1D1" fill-opacity="0.3"/>
</svg>
