<svg width="85" height="18" viewBox="0 0 85 18" fill="none" xmlns="http://www.w3.org/2000/svg">
<g clip-path="url(#clip0_538_33)">
<mask id="mask0_538_33" style="mask-type:luminance" maskUnits="userSpaceOnUse" x="0" y="0" width="85" height="18">
<path d="M84.2145 0H0V18H84.2145V0Z" fill="white"/>
</mask>
<g mask="url(#mask0_538_33)">
<path d="M9.50633 17.9684C8.17238 17.9684 6.9429 17.7632 5.8179 17.3526C4.70897 16.9263 3.73665 16.3263 2.90093 15.5526C2.0813 14.779 1.43843 13.871 0.97236 12.829C0.522363 11.7869 0.297363 10.6421 0.297363 9.39474C0.297363 8.14741 0.522363 7.00264 0.97236 5.96054C1.43843 4.91843 2.08933 4.01054 2.92505 3.23685C3.76076 2.46317 4.74111 1.87107 5.86611 1.46054C6.99111 1.03422 8.22862 0.821065 9.57862 0.821065C11.0732 0.821065 12.4152 1.0658 13.6045 1.55527C14.8099 2.04474 15.8224 2.75527 16.642 3.68685L14.1349 5.96054C13.5242 5.32896 12.8572 4.86317 12.134 4.56317C11.4107 4.24738 10.6232 4.08948 9.77145 4.08948C8.95185 4.08948 8.20447 4.2158 7.52947 4.46843C6.8545 4.72107 6.2679 5.08422 5.76968 5.55791C5.28755 6.03159 4.90986 6.59211 4.63665 7.23948C4.37951 7.88686 4.25093 8.60529 4.25093 9.39474C4.25093 10.1684 4.37951 10.879 4.63665 11.5263C4.90986 12.1737 5.28755 12.7421 5.76968 13.2316C6.2679 13.7053 6.84647 14.0684 7.5054 14.321C8.1804 14.5737 8.91968 14.7 9.72323 14.7C10.4947 14.7 11.242 14.5816 11.9652 14.3447C12.7045 14.0921 13.4197 13.6737 14.1107 13.0895L16.3286 15.8606C15.4126 16.5395 14.3438 17.0606 13.1224 17.4237C11.917 17.7869 10.7117 17.9684 9.50633 17.9684ZM12.7607 15.3632V9.13419H16.3286V15.8606L12.7607 15.3632ZM25.501 17.8026C24.2796 17.8026 23.1787 17.5342 22.1983 16.9974C21.234 16.4447 20.4707 15.6947 19.9082 14.7474C19.3457 13.7842 19.0644 12.6869 19.0644 11.4553C19.0644 10.2079 19.3457 9.11056 19.9082 8.16316C20.4707 7.2158 21.234 6.4737 22.1983 5.93685C23.1626 5.40001 24.2635 5.13159 25.501 5.13159C26.7546 5.13159 27.8635 5.40001 28.8278 5.93685C29.8082 6.4737 30.5715 7.2158 31.118 8.16316C31.6805 9.11056 31.9617 10.2079 31.9617 11.4553C31.9617 12.6869 31.6805 13.7842 31.118 14.7474C30.5715 15.6947 29.8082 16.4447 28.8278 16.9974C27.8474 17.5342 26.7385 17.8026 25.501 17.8026ZM25.501 16.3106C26.4171 16.3106 27.2287 16.1132 27.9358 15.7184C28.6429 15.3079 29.1974 14.7395 29.5992 14.0132C30.0171 13.271 30.226 12.4184 30.226 11.4553C30.226 10.4763 30.0171 9.62371 29.5992 8.89741C29.1974 8.17104 28.6429 7.61056 27.9358 7.2158C27.2287 6.80527 26.4251 6.60001 25.5251 6.60001C24.6251 6.60001 23.8215 6.80527 23.1144 7.2158C22.4072 7.61056 21.8447 8.17104 21.4269 8.89741C21.009 9.62371 20.8001 10.4763 20.8001 11.4553C20.8001 12.4184 21.009 13.271 21.4269 14.0132C21.8447 14.7395 22.4072 15.3079 23.1144 15.7184C23.8215 16.1132 24.6171 16.3106 25.501 16.3106ZM40.6151 17.9684C39.2651 17.9684 37.9714 17.7947 36.7339 17.4474C35.4964 17.0842 34.4999 16.6184 33.7446 16.05L35.0705 13.1606C35.7937 13.6658 36.6455 14.0842 37.6259 14.4158C38.6222 14.7316 39.6267 14.8895 40.6392 14.8895C41.4107 14.8895 42.0294 14.8184 42.4954 14.6763C42.9776 14.5184 43.3312 14.3053 43.5562 14.0369C43.7812 13.7684 43.8937 13.4606 43.8937 13.1132C43.8937 12.671 43.7169 12.3237 43.3633 12.071C43.0097 11.8026 42.5437 11.5895 41.9651 11.4316C41.3866 11.2579 40.7437 11.1 40.0366 10.9579C39.3454 10.8 38.6464 10.6106 37.9392 10.3895C37.2482 10.1684 36.6133 9.88419 36.0347 9.53686C35.4562 9.18946 34.9821 8.73159 34.6124 8.16316C34.2589 7.59474 34.0821 6.86843 34.0821 5.98422C34.0821 5.03685 34.3392 4.17633 34.8535 3.40264C35.3839 2.61317 36.1714 1.98948 37.216 1.53159C38.2767 1.0579 39.6026 0.821065 41.1937 0.821065C42.2544 0.821065 43.2991 0.94738 44.3276 1.20001C45.3562 1.43685 46.2642 1.80001 47.0517 2.28948L45.8464 5.20264C45.0589 4.76054 44.2714 4.43685 43.4839 4.23159C42.6964 4.01054 41.9249 3.90001 41.1696 3.90001C40.4142 3.90001 39.7955 3.98685 39.3134 4.16054C38.8312 4.33422 38.4856 4.56317 38.2767 4.84738C38.0678 5.1158 37.9634 5.43158 37.9634 5.79474C37.9634 6.22106 38.1401 6.56843 38.4937 6.83685C38.8472 7.08948 39.3134 7.29474 39.8919 7.45264C40.4705 7.61056 41.1053 7.76844 41.7964 7.92631C42.5035 8.08419 43.2026 8.26584 43.8937 8.47104C44.6008 8.67631 45.2437 8.95261 45.8222 9.30001C46.4008 9.64741 46.8669 10.1053 47.2205 10.6737C47.5901 11.2421 47.7749 11.9606 47.7749 12.829C47.7749 13.7606 47.5097 14.6132 46.9794 15.3869C46.4491 16.1606 45.6535 16.7842 44.5928 17.2579C43.5481 17.7316 42.2222 17.9684 40.6151 17.9684ZM55.9881 17.8026C54.7667 17.8026 53.6657 17.5342 52.6854 16.9974C51.7211 16.4447 50.9577 15.6947 50.3952 14.7474C49.8327 13.7842 49.5515 12.6869 49.5515 11.4553C49.5515 10.2079 49.8327 9.11056 50.3952 8.16316C50.9577 7.2158 51.7211 6.4737 52.6854 5.93685C53.6497 5.40001 54.7506 5.13159 55.9881 5.13159C57.2417 5.13159 58.3506 5.40001 59.3149 5.93685C60.2952 6.4737 61.0586 7.2158 61.6051 8.16316C62.1676 9.11056 62.4488 10.2079 62.4488 11.4553C62.4488 12.6869 62.1676 13.7842 61.6051 14.7474C61.0586 15.6947 60.2952 16.4447 59.3149 16.9974C58.3345 17.5342 57.2256 17.8026 55.9881 17.8026ZM55.9881 16.3106C56.9042 16.3106 57.7157 16.1132 58.4229 15.7184C59.1301 15.3079 59.6845 14.7395 60.0863 14.0132C60.5041 13.271 60.7131 12.4184 60.7131 11.4553C60.7131 10.4763 60.5041 9.62371 60.0863 8.89741C59.6845 8.17104 59.1301 7.61056 58.4229 7.2158C57.7157 6.80527 56.9122 6.60001 56.0122 6.60001C55.1122 6.60001 54.3086 6.80527 53.6014 7.2158C52.8943 7.61056 52.3318 8.17104 51.9139 8.89741C51.4961 9.62371 51.2872 10.4763 51.2872 11.4553C51.2872 12.4184 51.4961 13.271 51.9139 14.0132C52.3318 14.7395 52.8943 15.3079 53.6014 15.7184C54.3086 16.1132 55.1042 16.3106 55.9881 16.3106ZM65.9431 17.6842V0.110535H67.6546V17.6842H65.9431ZM77.5762 17.8026C76.3545 17.8026 75.2535 17.5342 74.2735 16.9974C73.3092 16.4447 72.5458 15.6947 71.9833 14.7474C71.4208 13.7842 71.1396 12.6869 71.1396 11.4553C71.1396 10.2079 71.4208 9.11056 71.9833 8.16316C72.5458 7.2158 73.3092 6.4737 74.2735 5.93685C75.2378 5.40001 76.3387 5.13159 77.5762 5.13159C78.8295 5.13159 79.9388 5.40001 80.9033 5.93685C81.8835 6.4737 82.647 7.2158 83.193 8.16316C83.7555 9.11056 84.0368 10.2079 84.0368 11.4553C84.0368 12.6869 83.7555 13.7842 83.193 14.7474C82.647 15.6947 81.8835 16.4447 80.9033 16.9974C79.9223 17.5342 78.8137 17.8026 77.5762 17.8026ZM77.5762 16.3106C78.492 16.3106 79.3035 16.1132 80.0107 15.7184C80.718 15.3079 81.2723 14.7395 81.6743 14.0132C82.092 13.271 82.3013 12.4184 82.3013 11.4553C82.3013 10.4763 82.092 9.62371 81.6743 8.89741C81.2723 8.17104 80.718 7.61056 80.0107 7.2158C79.3035 6.80527 78.5003 6.60001 77.6003 6.60001C76.7003 6.60001 75.897 6.80527 75.1897 7.2158C74.4824 7.61056 73.9199 8.17104 73.5021 8.89741C73.0842 9.62371 72.8753 10.4763 72.8753 11.4553C72.8753 12.4184 73.0842 13.271 73.5021 14.0132C73.9199 14.7395 74.4824 15.3079 75.1897 15.7184C75.897 16.1132 76.692 16.3106 77.5762 16.3106Z" fill="black"/>
</g>
</g>
<defs>
<clipPath id="clip0_538_33">
<rect width="84.75" height="18" fill="white"/>
</clipPath>
</defs>
</svg>
